<svg width="375" height="730" viewBox="0 0 375 730" fill="none" xmlns="http://www.w3.org/2000/svg">
<path d="M0 8H375V730H0V8Z" fill="url(#paint0_linear_57_2192)"/>
<mask id="mask0_57_2192" style="mask-type:alpha" maskUnits="userSpaceOnUse" x="0" y="0" width="375" height="729">
<path d="M0 0H375V729H0V0Z" fill="white"/>
</mask>
<g mask="url(#mask0_57_2192)">
<circle cx="187.5" cy="728.5" r="187.5" fill="black"/>
</g>
<path fill-rule="evenodd" clip-rule="evenodd" d="M15.0275 578.326C14.7684 576.741 16.3891 575.513 17.8453 576.191L38.2726 585.698C39.6387 586.334 39.8376 588.195 38.6368 589.105L38.3229 589.343L46.0115 593.422C47.2743 594.092 47.4469 595.832 46.3404 596.737L41.0258 601.084L46.4776 607.8L39.4899 613.472L34.0588 606.781L29.5462 610.472C28.4396 611.376 26.7684 610.862 26.3625 609.491L23.6818 600.441L21.8441 601.834C20.6432 602.744 18.9052 602.05 18.6621 600.563L15.0275 578.326Z" fill="black"/>
<path fill-rule="evenodd" clip-rule="evenodd" d="M235.557 519.838C236.634 518.771 238.497 519.496 238.831 521.112L241.662 534.784C241.93 536.081 241.038 537.144 239.91 537.13L240.742 542.441C240.972 543.911 239.72 545.022 238.364 544.549L233.305 542.786L231.899 548.629L228.571 547.455L229.973 541.625L225.704 540.137C224.348 539.664 223.772 537.917 224.61 536.819L227.856 532.566L227.294 532.348C225.88 531.797 225.414 529.883 226.445 528.862L235.557 519.838Z" fill="black"/>
<path fill-rule="evenodd" clip-rule="evenodd" d="M101.202 535.087C100.688 534.858 100.087 535.098 99.8717 535.617L92.079 554.414C91.7401 555.232 92.5516 556.054 93.3734 555.726L98.0366 553.865L99.8351 558.157L99.7696 558.184L102.026 563.565L118.814 556.525L116.685 551.449L116.705 551.441L114.901 547.135L119.76 545.195C120.582 544.867 120.604 543.712 119.795 543.353L101.202 535.087ZM110.709 548.808L106.838 550.353L107.571 552.19L111.445 550.565L110.709 548.808ZM111.625 550.995L107.744 552.624L108.501 554.523L112.415 552.881L111.625 550.995ZM107.14 552.371L106.404 550.526L102.229 552.192L103.027 554.096L107.14 552.371ZM103.207 554.527L107.313 552.804L108.07 554.703L103.997 556.412L103.207 554.527Z" fill="black"/>
<path fill-rule="evenodd" clip-rule="evenodd" d="M213.28 521.486L213.284 521.455C213.662 518.72 211.972 516.227 209.51 515.888C207.048 515.548 204.746 517.491 204.369 520.226L204.365 520.256C202.098 520.223 200.075 522.083 199.723 524.633C199.587 525.625 199.722 526.585 200.067 527.422C198.885 528.146 198.085 529.195 197.913 530.44C197.536 533.176 200.335 535.821 204.165 536.349C204.501 536.396 204.834 536.424 205.162 536.436L204.063 544.411L207.035 544.821L208.145 536.763C208.611 536.916 209.102 537.03 209.613 537.101C213.169 537.591 216.358 535.771 216.735 533.035C216.911 531.756 216.442 530.504 215.529 529.482C216.061 528.781 216.431 527.917 216.564 526.955C216.916 524.405 215.471 522.067 213.28 521.486Z" fill="black"/>
<path fill-rule="evenodd" clip-rule="evenodd" d="M360.95 610.128L360.976 610.112C363.28 608.59 363.899 605.775 362.358 603.826C360.817 601.876 357.7 601.529 355.395 603.05L355.37 603.067C353.744 601.454 350.891 601.249 348.743 602.668C347.907 603.22 347.293 603.941 346.924 604.73C345.526 604.374 344.165 604.497 343.116 605.19C340.812 606.712 340.887 610.404 343.285 613.437C343.495 613.704 343.716 613.956 343.947 614.194L337.229 618.631L339.089 620.984L345.876 616.502C346.102 616.928 346.375 617.347 346.695 617.752C348.921 620.569 352.593 621.618 354.897 620.097C355.975 619.385 356.562 618.237 356.655 616.929C357.562 616.845 358.473 616.541 359.284 616.005C361.431 614.587 362.115 612.046 360.95 610.128Z" fill="black"/>
<path fill-rule="evenodd" clip-rule="evenodd" d="M344.228 588.816L340.697 584.324L337.224 579.906C337.026 579.655 336.72 579.513 336.401 579.525L321.354 580.076C320.534 580.106 320.097 581.055 320.607 581.697L323.43 585.255L319.404 588.431L319.386 588.407L314.679 592.107L325.906 606.438L330.612 602.738L330.6 602.723L334.714 599.477L337.674 603.208C338.157 603.816 339.118 603.666 339.393 602.941L344.377 589.788C344.501 589.46 344.445 589.091 344.228 588.816ZM331.909 595.941L326.235 588.79L324.284 590.329L327.033 593.839L328.86 592.396L329.148 592.763L327.321 594.207L329.914 597.516L331.909 595.941ZM326.946 594.504L329.538 597.813L327.817 599.17L325.226 595.863L326.946 594.504ZM323.908 590.626L326.658 594.136L324.938 595.495L322.187 591.983L323.908 590.626Z" fill="black"/>
<defs>
<linearGradient id="paint0_linear_57_2192" x1="-113.5" y1="8" x2="-113.5" y2="730" gradientUnits="userSpaceOnUse">
<stop stop-color="#293251"/>
<stop offset="1" stop-color="#2C2C2C"/>
<stop offset="1.0001"/>
</linearGradient>
</defs>
</svg>
