<svg width="375" height="733" viewBox="0 0 375 733" fill="none" xmlns="http://www.w3.org/2000/svg">
<path d="M0 0H375V729H0V0Z" fill="url(#paint0_linear_57_2191)"/>
<mask id="mask0_57_2191" style="mask-type:alpha" maskUnits="userSpaceOnUse" x="0" y="3" width="375" height="729">
<path d="M0 3L375 3V732H0L0 3Z" fill="white"/>
</mask>
<g mask="url(#mask0_57_2191)">
<circle cx="187.5" cy="731.5" r="187.5" fill="white"/>
</g>
<path fill-rule="evenodd" clip-rule="evenodd" d="M15.0275 581.326C14.7684 579.741 16.3891 578.513 17.8453 579.191L38.2726 588.698C39.6387 589.334 39.8376 591.195 38.6368 592.105L38.3229 592.343L46.0115 596.422C47.2743 597.092 47.4469 598.832 46.3404 599.737L41.0258 604.084L46.4776 610.8L39.4899 616.472L34.0588 609.781L29.5462 613.472C28.4396 614.376 26.7684 613.862 26.3625 612.491L23.6818 603.441L21.8441 604.834C20.6432 605.744 18.9052 605.05 18.6621 603.563L15.0275 581.326Z" fill="white"/>
<path fill-rule="evenodd" clip-rule="evenodd" d="M235.557 522.838C236.634 521.771 238.497 522.496 238.831 524.112L241.662 537.784C241.93 539.081 241.038 540.144 239.91 540.13L240.742 545.441C240.972 546.911 239.72 548.022 238.364 547.549L233.305 545.786L231.899 551.629L228.571 550.455L229.973 544.625L225.704 543.137C224.348 542.664 223.772 540.917 224.61 539.819L227.856 535.566L227.294 535.348C225.88 534.797 225.414 532.883 226.445 531.862L235.557 522.838Z" fill="white"/>
<path fill-rule="evenodd" clip-rule="evenodd" d="M101.202 538.087C100.688 537.858 100.087 538.098 99.8717 538.617L92.079 557.414C91.7401 558.232 92.5516 559.054 93.3734 558.726L98.0366 556.865L99.8351 561.157L99.7696 561.184L102.026 566.565L118.814 559.525L116.685 554.449L116.705 554.441L114.901 550.135L119.76 548.195C120.582 547.867 120.604 546.712 119.795 546.353L101.202 538.087ZM110.709 551.808L106.838 553.353L107.571 555.19L111.445 553.565L110.709 551.808ZM111.625 553.995L107.744 555.624L108.501 557.523L112.415 555.881L111.625 553.995ZM107.14 555.371L106.404 553.526L102.229 555.192L103.027 557.096L107.14 555.371ZM103.207 557.527L107.313 555.804L108.07 557.703L103.997 559.412L103.207 557.527Z" fill="white"/>
<path fill-rule="evenodd" clip-rule="evenodd" d="M213.28 524.486L213.284 524.455C213.662 521.72 211.972 519.227 209.51 518.888C207.048 518.548 204.746 520.491 204.369 523.226L204.365 523.256C202.098 523.223 200.075 525.083 199.723 527.633C199.587 528.625 199.722 529.585 200.067 530.422C198.885 531.146 198.085 532.195 197.913 533.44C197.536 536.176 200.335 538.821 204.165 539.349C204.501 539.396 204.834 539.424 205.162 539.436L204.063 547.411L207.035 547.821L208.146 539.763C208.611 539.916 209.102 540.03 209.613 540.101C213.169 540.591 216.358 538.771 216.735 536.035C216.912 534.756 216.442 533.504 215.529 532.482C216.061 531.781 216.431 530.917 216.564 529.955C216.916 527.405 215.471 525.067 213.28 524.486Z" fill="white"/>
<path fill-rule="evenodd" clip-rule="evenodd" d="M360.95 613.128L360.976 613.112C363.28 611.59 363.899 608.775 362.358 606.826C360.817 604.876 357.7 604.529 355.395 606.05L355.37 606.067C353.744 604.454 350.891 604.249 348.743 605.668C347.907 606.22 347.293 606.941 346.924 607.73C345.526 607.374 344.165 607.497 343.116 608.19C340.812 609.712 340.887 613.404 343.284 616.437C343.495 616.704 343.716 616.956 343.947 617.194L337.229 621.631L339.089 623.984L345.876 619.502C346.102 619.928 346.375 620.347 346.695 620.752C348.921 623.569 352.593 624.618 354.897 623.097C355.975 622.385 356.562 621.237 356.655 619.929C357.562 619.845 358.473 619.541 359.284 619.005C361.431 617.587 362.115 615.046 360.95 613.128Z" fill="white"/>
<path fill-rule="evenodd" clip-rule="evenodd" d="M344.228 591.816L340.697 587.324L337.224 582.906C337.026 582.655 336.72 582.513 336.401 582.525L321.354 583.076C320.534 583.106 320.097 584.055 320.607 584.697L323.43 588.255L319.404 591.431L319.386 591.407L314.679 595.107L325.906 609.438L330.612 605.738L330.6 605.723L334.714 602.477L337.674 606.208C338.157 606.816 339.118 606.666 339.393 605.941L344.377 592.788C344.501 592.46 344.445 592.091 344.228 591.816ZM331.909 598.941L326.235 591.79L324.284 593.329L327.033 596.839L328.86 595.396L329.148 595.763L327.321 597.207L329.914 600.516L331.909 598.941ZM326.946 597.504L329.538 600.813L327.817 602.17L325.226 598.863L326.946 597.504ZM323.908 593.626L326.658 597.136L324.938 598.495L322.187 594.983L323.908 593.626Z" fill="white"/>
<defs>
<linearGradient id="paint0_linear_57_2191" x1="187.5" y1="0" x2="187.5" y2="729" gradientUnits="userSpaceOnUse">
<stop offset="0.035" stop-color="#D7CBE9"/>
<stop offset="1" stop-color="#A1C7E3"/>
</linearGradient>
</defs>
</svg>
