<svg width="24" height="24" viewBox="0 0 24 24" fill="none" xmlns="http://www.w3.org/2000/svg">
<path d="M3.00218 11.9875C2.94743 14.3234 3.92368 16.5837 5.71704 18.273C7.51039 19.9623 9.97462 20.9429 12.5698 21C14.2813 20.9828 15.956 20.551 17.4179 19.7499C18.8798 18.9488 20.0749 17.808 20.8776 16.4474C20.9636 16.3057 21.0057 16.1458 20.9994 15.9844C20.9931 15.8231 20.9387 15.6662 20.8419 15.5303C20.745 15.3944 20.6093 15.2844 20.449 15.2119C20.2887 15.1394 20.1097 15.1071 19.9307 15.1183L19.8208 15.1255C19.6898 15.1345 19.5578 15.1435 19.4208 15.1435C17.356 15.0865 15.4003 14.2956 13.9819 12.9438C12.5635 11.592 11.798 9.78944 11.8529 7.93078C11.8527 6.67345 12.202 5.43605 12.8688 4.33119C12.9547 4.18963 12.9967 4.02989 12.9905 3.8687C12.9843 3.7075 12.93 3.55077 12.8334 3.41491C12.7369 3.27904 12.6015 3.16904 12.4415 3.09641C12.2815 3.02377 12.1027 2.99118 11.9239 3.00204C9.45269 3.21298 7.16099 4.2556 5.50693 5.92148C3.85288 7.58736 2.95835 9.75374 3.00218 11.9875ZM10.3441 5.1015C10.0209 6.01643 9.85636 6.97073 9.8562 7.93078C9.81677 10.0657 10.6315 12.1423 12.1516 13.7815C13.6718 15.4208 15.7961 16.5136 18.137 16.8605C17.4494 17.5866 16.5965 18.1714 15.636 18.575C14.6755 18.9787 13.6298 19.1919 12.5698 19.2002C10.5049 19.1433 8.54925 18.3523 7.13087 17.0005C5.71249 15.6487 4.94697 13.8462 5.0019 11.9875C4.97853 10.4807 5.48166 9.00535 6.44022 7.76978C7.39879 6.53421 8.76437 5.60085 10.3441 5.1015Z" fill="#E8E4E4"/>
</svg>
